<svg width="40" height="40" viewBox="0 0 40 40" fill="none" xmlns="http://www.w3.org/2000/svg">
<circle cx="20" cy="20" r="20" fill="#D32F2F"/>
<path fill-rule="evenodd" clip-rule="evenodd" d="M12.2408 8C9.06813 10.5835 7 14.8157 7 19.5983C7 20.4476 7.06522 21.2796 7.19027 22.0881L10.5904 21.0024L11.3129 23.5464C12.8772 29.0545 15.7758 30.4832 17.8416 30.4425C20.2816 30.3946 21.7594 28.5764 21.7572 26.93C21.7556 25.7335 21.4856 25.1072 21.1879 24.6772C20.8291 24.1589 20.258 23.6767 19.2881 23.0521C19.0328 22.8876 18.7448 22.7136 18.4327 22.525L18.4326 22.5249C16.635 21.4385 14.0396 19.8699 12.2934 16.8793C10.6613 14.0843 10.3446 11.1426 11.7454 8.73268C11.8964 8.47291 12.0622 8.22893 12.2408 8ZM24.5125 32.652C28.9206 30.4506 32 25.4343 32 19.5983C32 17.4963 31.6005 15.5007 30.8833 13.7046L27.7011 15.8308L26.4438 13.5453C25.7725 12.3249 24.5902 11.362 23.0466 10.7754C21.5033 10.1889 19.7819 10.0558 18.3294 10.3305C16.8051 10.6187 15.9879 11.2624 15.708 11.744C15.583 11.959 15.2874 12.5549 16.19 14.1007C17.1906 15.8142 18.5266 16.6406 20.3014 17.7386L20.3015 17.7386C20.6809 17.9733 21.0803 18.2204 21.5008 18.4912C22.5879 19.1913 23.8703 20.1152 24.852 21.5332C25.8949 23.0395 26.4523 24.8797 26.4554 27.1287C26.4584 29.3572 25.7022 31.2294 24.5125 32.652Z" fill="#FFFAFA"/>
</svg>
